<svg width="1280" height="720" viewBox="0 0 1280 720" fill="none" xmlns="http://www.w3.org/2000/svg">
<g clip-path="url(#clip0_2_2)">
<rect width="1280" height="720" fill="white"/>
<path d="M1087.96 106.321C1088.07 87.8464 1108.13 76.4137 1124.08 85.7424L1278.07 175.823C1294.01 185.152 1293.88 208.245 1277.83 217.392L1122.82 305.709C1106.77 314.855 1086.84 303.195 1086.94 284.72L1087.96 106.321Z" fill="#F1F0FF"/>
<circle cy="329" r="73" fill="#F1F0FF"/>
<circle cx="164.5" cy="552.5" r="39.5" fill="#F1F0FF"/>
<circle cx="164.5" cy="473.5" r="39.5" fill="#F1F0FF"/>
<path fill-rule="evenodd" clip-rule="evenodd" d="M170.928 622.109C166.641 629.535 166.641 638.684 170.928 646.109L182.73 666.551C177.276 669.393 171.076 671 164.5 671C142.685 671 125 653.315 125 631.5C125 609.685 142.685 592 164.5 592C172.008 592 179.026 594.095 185.003 597.731L170.928 622.109ZM185.003 597.731L257.126 472.81C261.414 465.384 269.337 460.81 277.911 460.81H450.308C458.882 460.81 466.805 465.384 471.092 472.81L557.29 622.109C561.578 629.535 561.578 638.684 557.29 646.109L471.092 795.409C466.805 802.835 458.882 807.409 450.308 807.409H277.911C269.337 807.409 261.414 802.835 257.126 795.409L182.73 666.551C195.37 659.963 204 646.74 204 631.5C204 617.192 196.393 604.662 185.003 597.731Z" fill="#F1F0FF"/>
<circle cx="85.5" cy="631.5" r="39.5" fill="#F1F0FF"/>
<circle cx="6.5" cy="631.5" r="39.5" fill="#F1F0FF"/>
<circle cx="85.5" cy="552.5" r="39.5" fill="#F1F0FF"/>
</g>
<defs>
<clipPath id="clip0_2_2">
<rect width="1280" height="720" fill="white"/>
</clipPath>
</defs>
</svg>
